<svg xmlns="http://www.w3.org/2000/svg" viewBox="0 0 973 324"><defs><radialGradient cx="87.4338986%" cy="86.368819%" fx="87.4338986%" fy="86.368819%" r="75.0034663%" gradientTransform="translate(0.874339,0.863688),scale(1.000000,0.815545),translate(-0.874339,-0.863688)" id="A"><stop stop-color="#ffb148" offset="0%"/><stop stop-color="#efc84c" offset="100%"/></radialGradient></defs><g fill-rule="evenodd"><path d="M915.03 140.84a84.05 84.05 0 0 1 41.2 10.67l.15-.12h-.27l12.42-24.2c-9.32-6.44-27.22-13.33-52.3-13.33-35.57 0-59 17.78-59 43.87 0 29.64 23.7 38.83 48.6 42.68 25.2 3.85 33.2 9.2 33.2 18.67s-7.1 16.9-27 16.9c-22.23 0-34.68-7.7-43.27-13.93l-12.9 25.1c9.08 6.76 27.1 15.8 55.6 15.8 38.53 0 61.05-17.8 61.05-47.13 0-27.86-22.22-38.23-52.75-43-24-3.85-30.24-8.3-30.24-17.48.05-8.87 7.76-14.5 25.54-14.5zM412.3 126.32c0 40.9-29.05 67.28-79.43 67.28-10.08 0-18.68-.3-26.68-.9v65.5h-33.8V70.3c15.7-3.85 36.16-6.52 59.28-6.52 56.3 0 80.62 25.22 80.62 62.54zm-35 .3c0-20.46-14.52-33.5-44.75-33.5a260 260 0 0 0-26.38 1.48v69.07c7.707.587 16.6.88 26.68.88 32.03 0 44.47-16 44.47-37.93h-.02zm455.92-7.82v128.93c-14.22 6.82-35.86 14.82-67 14.82-43.87 0-63.43-21.63-63.43-55.72v-88h33.82v78.25c0 22.82 5.93 35.57 34.1 35.57a73.11 73.11 0 0 0 28.75-5.34V118.8h33.77zm-263.82-.9h-34.9c-7.1 35.86-16 71.53-32 104.43-.9 1.78-1.48 3.85-2.37 5.93-.6-1.78-1.48-3.85-2.37-5.93A456.1 456.1 0 0 1 462.51 118h-36.9c11 51 26.82 91.88 54.4 136.34-8.65 13.67-21.23 27.33-35.28 41l15.6 27.8c63.74-54.82 91.85-118.98 109.1-205.24zm56.93 11.97l-1.12-11.32h-32.9V258h34v-95.94c11.72-10.82 34.55-17.24 51.72-16.25l8.73-26.76c-21.15-4.05-44.5 2.6-60.43 10.82z" fill="white" fill-rule="nonzero"/><path fill="#0c6e6a" d="M183.048.012H64.225l86.028 44.414-96.68 190.994 8.174 4.227z"/><path d="M94.383 67.846c14.518-11.117 34.05-12.856 50.265-4.473s26.258 25.406 25.843 43.813l-.074 70.313c1.1 27.72-11.095 54.273-32.75 71.314-37.08 29.2-90.637 22.48-119.53-15.003s-22.246-91.63 14.84-120.83c1.71-1.35 5.217-3.808 5.217-3.808l56.187-41.325z" fill="url(#A)"/></g></svg>